<?xml version="1.0" encoding="utf-8"?>
<!-- Generator: Adobe Illustrator 16.0.4, SVG Export Plug-In . SVG Version: 6.00 Build 0)  -->
<!DOCTYPE svg PUBLIC "-//W3C//DTD SVG 1.1//EN" "http://www.w3.org/Graphics/SVG/1.1/DTD/svg11.dtd">
<svg version="1.1" id="Layer_1" xmlns="http://www.w3.org/2000/svg" xmlns:xlink="http://www.w3.org/1999/xlink" x="0px" y="0px"
	 width="1800px" height="600px" viewBox="-600 0 1800 600" enable-background="new -600 0 1800 600" xml:space="preserve">
<g id="Background" display="none">
	<rect display="inline" fill="#76B2DD" width="800" height="600"/>
</g>
<g id="Gear">
	<path id="Cog_1_" d="M-68.689,321.255c-0.1-0.6-0.8-1.1-1.3-1.5c-0.6-0.5-1.2-1-1.7-1.399c-1.3-1-2.6-2-3.899-2.9
		c-2.601-1.8-5.2-3.5-7.9-5.2c-5.3-3.3-10.8-6.3-16.5-8.899c-2.8-1.3-5.7-2.4-8.7-3.2c-0.5-0.1-0.7,0-0.7-0.6c0-0.4,0-0.8,0-1.2
		c0-0.8,0-1.6,0-2.3c0-1.7-0.1-3.4-0.199-5.101c-0.2-3.3-0.4-6.5-0.7-9.8c-0.101-1.6-0.3-3.1-0.5-4.7c-0.101-0.8-0.2-1.6-0.3-2.4
		c-0.101-0.6,0.1-0.5,0.6-0.7c0.4-0.2,0.9-0.4,1.3-0.6c5.6-2.6,10.8-6.1,15.8-9.8c5-3.7,9.9-7.7,14.4-12c1.1-1,2.2-2.1,3.2-3.2
		c0.5-0.5,1-1.1,1.5-1.6c0.5-0.6,0.5-0.9,0.399-1.7c-0.5-3.1-1.5-6.2-2.3-9.3s-1.6-6.2-2.6-9.2c-0.2-0.5-0.3-1.2-0.7-1.6
		c-0.3-0.4-1.4-0.6-2-0.8c-1.6-0.5-3.2-0.9-4.7-1.3c-6.3-1.5-12.7-2.6-19.2-3.3c-6.399-0.7-13-1.2-19.5-0.5
		c-0.399,0-0.699,0.1-1.1,0.1c-0.1-0.4-0.3-0.7-0.4-1c-0.3-0.7-0.6-1.4-0.899-2.1c-0.7-1.5-1.3-3-2-4.5c-1.3-2.8-2.7-5.7-4.101-8.4
		c-0.699-1.3-1.399-2.6-2.1-4c-0.4-0.7-0.7-1.3-1.1-2c-0.2-0.3-0.4-0.6-0.5-1c-0.4-0.7-0.4-0.6,0.1-1.2c2.1-2.2,4-4.6,5.8-7
		c3.7-5.1,7-10.6,10-16.2c1.5-2.8,2.9-5.7,4.3-8.6c0.601-1.4,1.2-2.7,1.801-4.1c0.3-0.7,0.5-1.4,0.8-2.1c0.2-0.5,0.7-1.5,0.399-2
		c-1.399-2.7-3.5-5.1-5.3-7.5c-2-2.6-3.899-5.1-5.899-7.6c-0.4-0.5-0.801-1.1-1.301-1.5c-0.5-0.6-0.899-0.6-1.699-0.6
		c-1.601,0.1-3.2,0.3-4.801,0.5c-3.199,0.5-6.399,1.1-9.6,1.8c-6.3,1.4-12.5,3.1-18.5,5.2c-2.9,1-5.8,2.2-8.5,3.6
		c-0.7,0.3-1.3,0.7-2,1.1c-0.4,0.2-0.5,0.5-0.9,0.1c-0.3-0.3-0.5-0.5-0.8-0.8c-1.2-1.1-2.3-2.3-3.5-3.4c-4.6-4.3-9.3-8.3-14.3-12.2
		c-0.3-0.2-0.6-0.5-0.9-0.7c0.101-0.4,0.301-0.7,0.4-1.1c0.3-0.7,0.5-1.4,0.8-2.1c0.5-1.6,1-3.1,1.4-4.7c0.8-3.1,1.5-6.3,2-9.5
		c1.1-6.4,1.7-12.8,2.1-19.2c0.2-3.2,0.3-6.4-0.1-9.6c0-0.3-0.9-0.8-1.101-1c-0.6-0.4-1.199-0.8-1.899-1.2c-1.4-0.9-2.9-1.7-4.3-2.6
		c-2.801-1.6-5.601-3.2-8.4-4.8c-0.7-0.4-2.7-1.9-3.5-1.5c-1.5,0.6-2.9,1.4-4.3,2.3c-5.4,3.2-10.601,6.8-15.601,10.6
		c-4.899,3.8-9.699,7.8-13.899,12.4c-1,1.1-2,2.3-2.9,3.5c-1.5-0.6-3.1-1.2-4.6-1.8c-3-1.1-6-2.2-9-3.2s-6.101-1.9-9.101-2.8
		c-0.699-0.2-1.5-0.4-2.199-0.6c0-0.8,0-1.5,0-2.3c-0.101-1.6-0.2-3.3-0.4-4.9c-0.8-6.4-2.3-12.7-4.1-18.9
		c-1.7-6-3.601-12.2-6.4-17.9c-0.2-0.4-0.4-1.2-0.9-1.4c-0.6-0.2-1.199-0.3-1.8-0.5c-1.6-0.3-3.3-0.5-4.899-0.8
		c-3.2-0.5-6.5-0.8-9.7-1.2c-1.5-0.2-3-0.4-4.5-0.4c-1.4,0-2.5,2-3.3,3c-1.9,2.5-3.7,5.1-5.5,7.7c-3.5,5.2-6.601,10.7-9.5,16.3
		c-1.4,2.8-2.7,5.6-3.801,8.5c-0.5,1.4-1,2.8-1.399,4.2c-0.101,0.4-0.2,0.7-0.3,1.1c-0.4,0-0.801,0-1.2,0c-0.9,0-1.8,0-2.7,0
		c-6.5,0.1-13.1,0.6-19.6,1.4c-0.801,0.1-1.601,0.2-2.4,0.3c-0.6,0.1-0.5-0.1-0.7-0.6c-0.1-0.3-0.3-0.7-0.399-1
		c-0.7-1.4-1.4-2.8-2.2-4.2c-1.5-2.7-3.2-5.4-5-7.9c-3.5-5.2-7.5-10.1-11.601-14.8c-2.1-2.3-4.199-4.7-6.399-6.8
		c-0.5-0.5-1.101-1-1.601-1.5c-0.5-0.4-0.699-0.5-1.399-0.4c-1.601,0.2-3.2,0.6-4.7,1c-3.2,0.8-6.3,1.7-9.4,2.5
		c-1.399,0.4-2.899,0.8-4.3,1.2c-0.6,0.2-1.2,0.4-1.7,0.7c-0.6,0.4-0.8,1.4-1,2.1c-1.899,6.1-3.1,12.6-4,18.9
		c-0.899,6.4-1.6,12.9-1.399,19.4c0,1.6,0.1,3.1,0.3,4.7c0,0.4,0.1,0.8,0.1,1.1c0.101,0.6-0.199,0.5-0.699,0.7
		c-0.801,0.3-1.601,0.7-2.4,1c-2.9,1.3-5.7,2.6-8.6,4c-2.801,1.4-5.601,2.8-8.3,4.3c-0.7,0.4-1.3,0.7-2,1.1c-0.3,0.2-0.7,0.4-1,0.5
		c-0.4,0.2-0.5,0.5-0.9,0.1c-1.1-1.1-2.3-2.2-3.5-3.2c-4.8-4-10.1-7.4-15.5-10.5c-5.5-3.2-11.2-6.2-17.1-8.5
		c-0.7-0.3-1.4-0.5-2.1-0.8c-0.4-0.1-1.4-0.7-1.8-0.5c-1.3,0.5-2.5,1.6-3.6,2.4c-2.6,1.9-5.2,3.9-7.7,5.9c-1.2,0.9-2.4,1.9-3.6,2.8
		c-0.5,0.4-1.1,0.9-1.6,1.3c-0.7,0.6-0.9,1-0.8,1.9c0.2,3.2,0.7,6.3,1.3,9.4c1.2,6.4,2.7,12.7,4.7,18.8c0.9,3,2,5.9,3.1,8.8
		c0.6,1.4,1.2,2.7,1.8,4.1c0.3,0.7,0.7,1.3,1,2c0.2,0.3,0.4,0.7,0.6,1c-0.4,0.4-0.7,0.7-1.1,1.1c-4.4,4.5-8.6,9.2-12.5,14
		c-1,1.2-1.9,2.3-2.8,3.5c-0.2,0.3-0.5,0.6-0.7,0.9c-0.3,0.4-0.5,0.2-0.9,0c-0.8-0.3-1.7-0.6-2.5-0.9c-3-1-6.1-1.8-9.3-2.5
		c-6.3-1.3-12.7-2.2-19.2-2.7c-3.2-0.3-6.5-0.5-9.7-0.5c-1.5,0-3.1,0-4.6,0.2c-1.1,0.1-2,2.2-2.5,3.1c-1.7,2.8-3.3,5.6-4.9,8.4
		c-0.8,1.3-1.5,2.7-2.3,4c-0.4,0.7-0.7,1.3-1.1,2c-0.2,0.5-0.9,1.4-0.6,1.9c1.2,2.9,3,5.5,4.6,8.1c1.7,2.7,3.5,5.2,5.3,7.8
		c3.7,5,7.6,9.9,11.9,14.4c2.2,2.2,4.4,4.4,6.9,6.3c-1.2,2.9-2.3,5.9-3.4,8.9s-2.1,6-3,9c-0.5,1.5-0.9,2.9-1.3,4.4
		c-0.2,0.7-0.4,1.5-0.6,2.2c-0.2,0.5-0.3,0.4-0.9,0.4c-0.5,0-1,0-1.5,0c-6.4,0.3-12.8,1.6-19,3.2c-6.2,1.6-12.3,3.5-18.3,5.8
		c-1.4,0.5-2.8,1.1-4.1,1.8c-0.4,0.2-1.5,0.5-1.7,0.9c-0.3,0.6-0.4,1.3-0.5,2c-0.6,3.2-1,6.4-1.4,9.6c-0.2,1.5-0.4,3.1-0.6,4.6
		c-0.2,1.6-0.5,3.2-0.5,4.8c0,1.3,1.8,2.3,2.7,3c1.3,1,2.6,2,3.9,2.9c5.1,3.6,10.5,7,16,10c5.4,3,11.1,5.7,17,7.5
		c0.4,0.101,0.7,0.2,1.1,0.301c0,0.399,0,0.799,0,1.199c0,0.801,0,1.601,0,2.301c0,1.699,0.1,3.399,0.2,5.1c0.1,3.3,0.4,6.5,0.7,9.8
		c0.1,1.601,0.3,3.101,0.5,4.7c0.1,0.8,0.2,1.6,0.3,2.4c0.1,0.5,0.3,0.699-0.2,0.899c-0.4,0.2-0.9,0.4-1.3,0.601
		c-2.8,1.3-5.4,2.8-8,4.399c-5.3,3.3-10.4,7.101-15.2,11.101c-2.4,2-4.8,4-7,6.199c-1.1,1-2.2,2.101-3.2,3.2
		c-0.5,0.5-1,1.101-1.5,1.601c-0.5,0.6-0.7,0.8-0.7,1.6c0.3,3.1,1.4,6.2,2.2,9.2c0.8,3.1,1.6,6.2,2.6,9.2
		c0.2,0.6,0.4,1.199,0.7,1.699c0.3,0.601,1.2,0.7,1.7,0.9c1.6,0.5,3.1,0.9,4.7,1.3c3.2,0.8,6.4,1.4,9.6,2
		c6.4,1.101,12.8,1.9,19.3,2.2c3.3,0.1,6.5,0.1,9.8-0.2c0.4,0,0.7-0.1,1.1-0.1c0.6-0.101,0.5,0.2,0.7,0.7
		c0.3,0.699,0.6,1.399,0.9,2.1c0.7,1.5,1.3,3,2,4.5c1.3,2.8,2.7,5.7,4.1,8.4c0.7,1.3,1.4,2.699,2.1,4c0.4,0.699,0.7,1.3,1.1,2
		c0.2,0.3,0.4,0.699,0.5,1c0.3,0.5,0.7,0.8,0.3,1.199c-4.3,4.4-7.9,9.601-11.1,14.801c-3.4,5.399-6.4,11.1-9.1,16.8
		c-0.6,1.399-1.3,2.7-1.8,4.1c-0.3,0.7-0.6,1.4-0.8,2.101c-0.2,0.5-0.8,1.699-0.7,2.199c0.4,1.2,1.4,2.301,2.2,3.301
		c1,1.399,2,2.699,3,4c2,2.6,3.9,5.1,5.9,7.6c0.7,0.9,1.6,2.5,2.8,2.4c1.6-0.101,3.2-0.301,4.8-0.5c6.4-0.9,12.8-2.301,19-4.101
		c6-1.7,12-3.6,17.7-6.399c0.7-0.301,1.3-0.7,2-1c0.3-0.2,0.7-0.4,1-0.601c0.3,0.3,0.5,0.5,0.8,0.8c1.2,1.101,2.3,2.301,3.5,3.4
		c2.3,2.1,4.6,4.2,7,6.3c2.4,2,4.8,4,7.3,5.9c0.3,0.2,0.6,0.5,0.9,0.7c0.4,0.3,0.2,0.5,0,0.899c-0.3,0.7-0.5,1.4-0.8,2.101
		c-0.5,1.6-1,3.1-1.4,4.699c-1.6,6.2-2.7,12.7-3.4,19.101c-0.3,3.2-0.6,6.399-0.8,9.6c-0.2,3.2-0.3,6.5,0,9.601
		c0.1,1.1,1.9,1.8,2.7,2.3c1.4,0.899,2.9,1.7,4.3,2.6c2.8,1.601,5.6,3.2,8.4,4.8c1.1,0.601,2.4,1.601,3.6,1.7
		c0.6,0.101,1.4-0.6,1.9-0.8c0.8-0.4,1.5-0.8,2.3-1.3c2.7-1.601,5.4-3.3,8-5.101c5.2-3.5,10.2-7.3,14.9-11.5
		c2.299-2,4.6-4.199,6.699-6.399c1-1.101,2-2.2,2.9-3.4c0.3-0.399,0.5-0.2,0.9,0c0.399,0.101,0.699,0.3,1.1,0.4
		c0.8,0.3,1.7,0.7,2.5,1c5.9,2.3,12,4.3,18.1,6.1c0.7,0.2,1.5,0.4,2.2,0.601c0.5,0.199,0.4,0.3,0.4,0.899c0,0.4,0,0.8,0,1.101
		c0.1,1.6,0.2,3.3,0.399,4.899c0.4,3.2,1,6.4,1.601,9.5c1.399,6.3,3.2,12.5,5.3,18.601c1,3,2.1,5.899,3.4,8.699
		c0.199,0.4,0.5,1.5,0.899,1.7c0.5,0.2,1.101,0.3,1.7,0.5c1.6,0.3,3.2,0.5,4.9,0.8c3.199,0.4,6.5,0.9,9.699,1.2
		c1.5,0.2,3,0.4,4.5,0.5c0.9,0,1.2-0.1,1.7-0.7c0.601-0.6,1.101-1.3,1.7-2c3.9-4.899,7.3-10.3,10.5-15.699
		c3.1-5.4,6.1-10.9,8.3-16.7c0.5-1.4,1-2.8,1.5-4.2c0.101-0.4,0.2-0.7,0.3-1.1c0.101-0.5,0.4-0.4,0.9-0.4c0.9,0,1.8,0,2.7,0
		c3.3-0.1,6.5-0.2,9.8-0.4c3.3-0.199,6.5-0.5,9.8-0.899c0.8-0.101,1.601-0.2,2.4-0.3c0.5-0.101,0.7-0.301,0.899,0.199
		c0.101,0.301,0.301,0.7,0.4,1c0.6,1.4,1.4,2.801,2.1,4.2c3,5.5,6.7,10.601,10.5,15.5c3.801,4.9,7.9,9.8,12.4,14.101
		c0.7,0.699,1.9,2.199,2.9,2.199c1.6-0.1,3.199-0.6,4.699-1c3.2-0.8,6.301-1.699,9.4-2.5c1.4-0.399,2.9-0.8,4.3-1.199
		c0.601-0.2,1.3-0.4,1.8-0.601c0.8-0.399,0.9-1.1,1.2-1.899c1-3,1.7-6.2,2.3-9.301c1.3-6.3,2.3-12.8,2.8-19.199
		c0.301-3.301,0.4-6.5,0.4-9.801c0-1.6-0.1-3.1-0.2-4.699c0-0.4-0.1-0.7-0.1-1.101c-0.101-0.5-0.3-0.7,0.3-0.899
		c0.8-0.301,1.6-0.7,2.4-1c5.8-2.5,11.399-5.2,16.899-8.2c1.3-0.7,2.601-1.4,3.9-2.2c1.1,1.1,2.3,2.2,3.5,3.2
		c2.399,2,4.899,3.8,7.399,5.5c5.301,3.6,10.801,6.7,16.5,9.6c2.801,1.4,5.7,2.8,8.601,4c1.399,0.601,2.7,1.101,4.2,1.5
		c0.3,0.101,1.1-0.5,1.3-0.7c0.7-0.5,1.399-1,2.1-1.5c2.601-1.899,5.2-3.899,7.7-5.899c1.2-0.9,2.4-1.9,3.6-2.8
		c0.9-0.7,2.801-1.801,2.7-3.101c-0.2-6.399-1.8-12.8-3.3-19s-3.3-12.3-5.7-18.1c-0.6-1.4-1.2-2.7-1.8-4.101c-0.3-0.7-0.7-1.3-1-2
		c-0.2-0.3-0.4-0.7-0.5-1c-0.3-0.5,0.2-0.7,0.6-1.1c2.2-2.2,4.301-4.5,6.4-6.9c2.1-2.3,4.1-4.7,6.1-7.1c1-1.2,1.9-2.3,2.801-3.5
		c0.199-0.3,0.5-0.601,0.699-0.9c0.301-0.399,0.301-0.7,0.801-0.399c0.8,0.3,1.699,0.6,2.5,0.899c6.1,2.101,12.5,3.3,18.8,4.2
		c6.399,0.9,12.8,1.5,19.3,1.601c1.5,0,3.1,0,4.6-0.101c0.7-0.1,0.8-0.1,1.3-0.7c0.5-0.7,1-1.399,1.4-2.1c1.7-2.8,3.3-5.601,4.9-8.4
		c0.8-1.3,1.5-2.7,2.3-4c0.6-1.1,1.7-2.6,1.9-3.899c0.1-0.601-0.601-1.4-0.801-1.9c-0.3-0.7-0.699-1.3-1.1-2
		c-0.8-1.399-1.7-2.8-2.5-4.2c-3.4-5.3-7.1-10.399-11-15.3c-3.9-4.8-8.1-9.5-13-13.3c-0.4-0.3-0.2-0.5,0-0.9
		c0.1-0.399,0.3-0.699,0.4-1.1c0.3-0.7,0.6-1.4,0.8-2.1c0.6-1.5,1.2-3.101,1.7-4.601c1.1-3,2.1-6,3-9c0.5-1.5,0.899-2.899,1.3-4.399
		c0.2-0.7,0.399-1.5,0.6-2.2c0.101-0.5,0-0.7,0.601-0.7c0.5,0,1,0,1.5,0c3.199-0.101,6.3-0.601,9.5-1.101
		c6.399-1.1,12.6-2.699,18.8-4.699c3-1,6-2,9-3.101c1.399-0.5,2.8-1.1,4.1-1.7c0.7-0.3,1.3-0.6,1.9-1c0.399-0.199,0.5-1.399,0.5-1.8
		c0.6-3.3,1-6.6,1.399-9.899c0.2-1.7,0.4-3.301,0.601-5C-68.89,324.556-68.489,322.755-68.689,321.255
		C-68.689,321.056-68.689,321.755-68.689,321.255z M-147.089,293.055c0.8,25.3-4.101,50.2-13.601,73.5
		c-9.1,22.1-23.3,42.3-40.5,58.8c-18,17.2-39.7,30.5-63.3,38.6c-23.8,8.2-49.1,11.4-74.2,9c-24.8-2.399-49.1-10.2-70.7-22.6
		c-21.3-12.3-40-29.101-54.399-49c-14.6-20.2-24.8-43.5-29.7-67.9c-5-24.6-4.7-50.2,1.1-74.6c5.6-23.7,16.1-46.2,30.8-65.6
		c14.9-19.8,34-36.3,55.8-48.2c22.399-12.2,47.399-19.3,72.8-21c24.9-1.7,50.3,2.3,73.6,11.2c22.7,8.7,43.5,22.1,60.7,39.2
		c17.601,17.5,31.4,38.6,40.2,61.8C-151.589,254.355-147.689,273.655-147.089,293.055
		C-146.989,294.256-147.089,292.955-147.089,293.055z"/>
	<path id="Cog" fill="#FFFFFF" d="M-68.689,319.255c-0.1-0.6-0.8-1.1-1.3-1.5c-0.6-0.5-1.2-1-1.7-1.399c-1.3-1-2.6-2-3.899-2.9
		c-2.601-1.8-5.2-3.5-7.9-5.2c-5.3-3.3-10.8-6.3-16.5-8.899c-2.8-1.3-5.7-2.4-8.7-3.2c-0.5-0.1-0.7,0-0.7-0.6c0-0.4,0-0.8,0-1.2
		c0-0.8,0-1.6,0-2.3c0-1.7-0.1-3.4-0.199-5.1c-0.2-3.3-0.4-6.5-0.7-9.8c-0.101-1.6-0.3-3.1-0.5-4.7c-0.101-0.8-0.2-1.6-0.3-2.4
		c-0.101-0.6,0.1-0.5,0.6-0.7c0.4-0.2,0.9-0.4,1.3-0.6c5.6-2.6,10.8-6.1,15.8-9.8c5-3.7,9.9-7.7,14.4-12c1.1-1,2.2-2.1,3.2-3.2
		c0.5-0.5,1-1.1,1.5-1.6c0.5-0.6,0.5-0.9,0.399-1.7c-0.5-3.1-1.5-6.2-2.3-9.3s-1.6-6.2-2.6-9.2c-0.2-0.5-0.3-1.2-0.7-1.6
		c-0.3-0.4-1.4-0.6-2-0.8c-1.6-0.5-3.2-0.9-4.7-1.3c-6.3-1.5-12.7-2.6-19.2-3.3c-6.399-0.7-13-1.2-19.5-0.5
		c-0.399,0-0.699,0.1-1.1,0.1c-0.1-0.4-0.3-0.7-0.4-1c-0.3-0.7-0.6-1.4-0.899-2.1c-0.7-1.5-1.3-3-2-4.5c-1.3-2.8-2.7-5.7-4.101-8.4
		c-0.699-1.3-1.399-2.6-2.1-4c-0.4-0.7-0.7-1.3-1.1-2c-0.2-0.3-0.4-0.6-0.5-1c-0.4-0.7-0.4-0.6,0.1-1.2c2.1-2.2,4-4.6,5.8-7
		c3.7-5.1,7-10.6,10-16.2c1.5-2.8,2.9-5.7,4.3-8.6c0.601-1.4,1.2-2.7,1.801-4.1c0.3-0.7,0.5-1.4,0.8-2.1c0.2-0.5,0.7-1.5,0.399-2
		c-1.399-2.7-3.5-5.1-5.3-7.5c-2-2.6-3.899-5.1-5.899-7.6c-0.4-0.5-0.801-1.1-1.301-1.5c-0.5-0.6-0.899-0.6-1.699-0.6
		c-1.601,0.1-3.2,0.3-4.801,0.5c-3.199,0.5-6.399,1.1-9.6,1.8c-6.3,1.4-12.5,3.1-18.5,5.2c-2.9,1-5.8,2.2-8.5,3.6
		c-0.7,0.3-1.3,0.7-2,1.1c-0.4,0.2-0.5,0.5-0.9,0.1c-0.3-0.3-0.5-0.5-0.8-0.8c-1.2-1.1-2.3-2.3-3.5-3.4c-4.6-4.3-9.3-8.3-14.3-12.2
		c-0.3-0.2-0.6-0.5-0.9-0.7c0.101-0.4,0.301-0.7,0.4-1.1c0.3-0.7,0.5-1.4,0.8-2.1c0.5-1.6,1-3.1,1.4-4.7c0.8-3.1,1.5-6.3,2-9.5
		c1.1-6.4,1.7-12.8,2.1-19.2c0.2-3.2,0.3-6.4-0.1-9.6c0-0.3-0.9-0.8-1.101-1c-0.6-0.4-1.199-0.8-1.899-1.2c-1.4-0.9-2.9-1.7-4.3-2.6
		c-2.801-1.6-5.601-3.2-8.4-4.8c-0.7-0.4-2.7-1.9-3.5-1.5c-1.5,0.6-2.9,1.4-4.3,2.3c-5.4,3.2-10.601,6.8-15.601,10.6
		c-4.899,3.8-9.699,7.8-13.899,12.4c-1,1.1-2,2.3-2.9,3.5c-1.5-0.6-3.1-1.2-4.6-1.8c-3-1.1-6-2.2-9-3.2s-6.101-1.9-9.101-2.8
		c-0.699-0.2-1.5-0.4-2.199-0.6c0-0.8,0-1.5,0-2.3c-0.101-1.6-0.2-3.3-0.4-4.9c-0.8-6.4-2.3-12.7-4.1-18.9
		c-1.7-6-3.601-12.2-6.4-17.9c-0.2-0.4-0.4-1.2-0.9-1.4c-0.6-0.2-1.199-0.3-1.8-0.5c-1.6-0.3-3.3-0.5-4.899-0.8
		c-3.2-0.5-6.5-0.8-9.7-1.2c-1.5-0.2-3-0.4-4.5-0.4c-1.4,0-2.5,2-3.3,3c-1.9,2.5-3.7,5.1-5.5,7.7c-3.5,5.2-6.601,10.7-9.5,16.3
		c-1.4,2.8-2.7,5.6-3.801,8.5c-0.5,1.4-1,2.8-1.399,4.2c-0.101,0.4-0.2,0.7-0.3,1.1c-0.4,0-0.801,0-1.2,0c-0.9,0-1.8,0-2.7,0
		c-6.5,0.1-13.1,0.6-19.6,1.4c-0.801,0.1-1.601,0.2-2.4,0.3c-0.6,0.1-0.5-0.1-0.7-0.6c-0.1-0.3-0.3-0.7-0.399-1
		c-0.7-1.4-1.4-2.8-2.2-4.2c-1.5-2.7-3.2-5.4-5-7.9c-3.5-5.2-7.5-10.1-11.601-14.8c-2.1-2.3-4.199-4.7-6.399-6.8
		c-0.5-0.5-1.101-1-1.601-1.5c-0.5-0.4-0.699-0.5-1.399-0.4c-1.601,0.2-3.2,0.6-4.7,1c-3.2,0.8-6.3,1.7-9.4,2.5
		c-1.399,0.4-2.899,0.8-4.3,1.2c-0.6,0.2-1.2,0.4-1.7,0.7c-0.6,0.4-0.8,1.4-1,2.1c-1.899,6.1-3.1,12.6-4,18.9
		c-0.899,6.4-1.6,12.9-1.399,19.4c0,1.6,0.1,3.1,0.3,4.7c0,0.4,0.1,0.8,0.1,1.1c0.101,0.6-0.199,0.5-0.699,0.7
		c-0.801,0.3-1.601,0.7-2.4,1c-2.9,1.3-5.7,2.6-8.6,4c-2.801,1.4-5.601,2.8-8.3,4.3c-0.7,0.4-1.3,0.7-2,1.1c-0.3,0.2-0.7,0.4-1,0.5
		c-0.4,0.2-0.5,0.5-0.9,0.1c-1.1-1.1-2.3-2.2-3.5-3.2c-4.8-4-10.1-7.4-15.5-10.5c-5.5-3.2-11.2-6.2-17.1-8.5
		c-0.7-0.3-1.4-0.5-2.1-0.8c-0.4-0.1-1.4-0.7-1.8-0.5c-1.3,0.5-2.5,1.6-3.6,2.4c-2.6,1.9-5.2,3.9-7.7,5.9c-1.2,0.9-2.4,1.9-3.6,2.8
		c-0.5,0.4-1.1,0.9-1.6,1.3c-0.7,0.6-0.9,1-0.8,1.9c0.2,3.2,0.7,6.3,1.3,9.4c1.2,6.4,2.7,12.7,4.7,18.8c0.9,3,2,5.9,3.1,8.8
		c0.6,1.4,1.2,2.7,1.8,4.1c0.3,0.7,0.7,1.3,1,2c0.2,0.3,0.4,0.7,0.6,1c-0.4,0.4-0.7,0.7-1.1,1.1c-4.4,4.5-8.6,9.2-12.5,14
		c-1,1.2-1.9,2.3-2.8,3.5c-0.2,0.3-0.5,0.6-0.7,0.9c-0.3,0.4-0.5,0.2-0.9,0c-0.8-0.3-1.7-0.6-2.5-0.9c-3-1-6.1-1.8-9.3-2.5
		c-6.3-1.3-12.7-2.2-19.2-2.7c-3.2-0.3-6.5-0.5-9.7-0.5c-1.5,0-3.1,0-4.6,0.2c-1.1,0.1-2,2.2-2.5,3.1c-1.7,2.8-3.3,5.6-4.9,8.4
		c-0.8,1.3-1.5,2.7-2.3,4c-0.4,0.7-0.7,1.3-1.1,2c-0.2,0.5-0.9,1.4-0.6,1.9c1.2,2.9,3,5.5,4.6,8.1c1.7,2.7,3.5,5.2,5.3,7.8
		c3.7,5,7.6,9.9,11.9,14.4c2.2,2.2,4.4,4.4,6.9,6.3c-1.2,2.9-2.3,5.9-3.4,8.9s-2.1,6-3,9c-0.5,1.5-0.9,2.9-1.3,4.4
		c-0.2,0.7-0.4,1.5-0.6,2.2c-0.2,0.5-0.3,0.4-0.9,0.4c-0.5,0-1,0-1.5,0c-6.4,0.3-12.8,1.6-19,3.2c-6.2,1.6-12.3,3.5-18.3,5.8
		c-1.4,0.5-2.8,1.1-4.1,1.8c-0.4,0.2-1.5,0.5-1.7,0.9c-0.3,0.6-0.4,1.3-0.5,2c-0.6,3.2-1,6.4-1.4,9.6c-0.2,1.5-0.4,3.1-0.6,4.6
		c-0.2,1.6-0.5,3.2-0.5,4.8c0,1.3,1.8,2.3,2.7,3c1.3,1,2.6,2,3.9,2.9c5.1,3.6,10.5,7,16,10c5.4,3,11.1,5.7,17,7.5
		c0.4,0.1,0.7,0.199,1.1,0.3c0,0.399,0,0.799,0,1.199c0,0.801,0,1.601,0,2.301c0,1.699,0.1,3.399,0.2,5.1c0.1,3.3,0.4,6.5,0.7,9.8
		c0.1,1.601,0.3,3.101,0.5,4.7c0.1,0.8,0.2,1.6,0.3,2.4c0.1,0.5,0.3,0.699-0.2,0.899c-0.4,0.2-0.9,0.4-1.3,0.601
		c-2.8,1.3-5.4,2.8-8,4.399c-5.3,3.3-10.4,7.101-15.2,11.101c-2.4,2-4.8,4-7,6.199c-1.1,1-2.2,2.101-3.2,3.2
		c-0.5,0.5-1,1.101-1.5,1.601c-0.5,0.6-0.7,0.8-0.7,1.6c0.3,3.1,1.4,6.2,2.2,9.2c0.8,3.1,1.6,6.2,2.6,9.2
		c0.2,0.6,0.4,1.199,0.7,1.699c0.3,0.601,1.2,0.7,1.7,0.9c1.6,0.5,3.1,0.9,4.7,1.3c3.2,0.8,6.4,1.4,9.6,2
		c6.4,1.101,12.8,1.9,19.3,2.2c3.3,0.1,6.5,0.1,9.8-0.2c0.4,0,0.7-0.1,1.1-0.1c0.6-0.101,0.5,0.2,0.7,0.7
		c0.3,0.699,0.6,1.399,0.9,2.1c0.7,1.5,1.3,3,2,4.5c1.3,2.8,2.7,5.7,4.1,8.4c0.7,1.3,1.4,2.699,2.1,4c0.4,0.699,0.7,1.3,1.1,2
		c0.2,0.3,0.4,0.699,0.5,1c0.3,0.5,0.7,0.8,0.3,1.199c-4.3,4.4-7.9,9.601-11.1,14.801c-3.4,5.399-6.4,11.1-9.1,16.8
		c-0.6,1.399-1.3,2.7-1.8,4.1c-0.3,0.7-0.6,1.4-0.8,2.101c-0.2,0.5-0.8,1.699-0.7,2.199c0.4,1.2,1.4,2.301,2.2,3.301
		c1,1.399,2,2.699,3,4c2,2.6,3.9,5.1,5.9,7.6c0.7,0.9,1.6,2.5,2.8,2.4c1.6-0.101,3.2-0.301,4.8-0.5c6.4-0.9,12.8-2.301,19-4.101
		c6-1.7,12-3.6,17.7-6.399c0.7-0.301,1.3-0.7,2-1c0.3-0.2,0.7-0.4,1-0.601c0.3,0.3,0.5,0.5,0.8,0.8c1.2,1.101,2.3,2.301,3.5,3.4
		c2.3,2.1,4.6,4.2,7,6.3c2.4,2,4.8,4,7.3,5.9c0.3,0.2,0.6,0.5,0.9,0.7c0.4,0.3,0.2,0.5,0,0.899c-0.3,0.7-0.5,1.4-0.8,2.101
		c-0.5,1.6-1,3.1-1.4,4.699c-1.6,6.2-2.7,12.7-3.4,19.101c-0.3,3.2-0.6,6.399-0.8,9.6c-0.2,3.2-0.3,6.5,0,9.601
		c0.1,1.1,1.9,1.8,2.7,2.3c1.4,0.899,2.9,1.7,4.3,2.6c2.8,1.601,5.6,3.2,8.4,4.8c1.1,0.601,2.4,1.601,3.6,1.7
		c0.6,0.101,1.4-0.6,1.9-0.8c0.8-0.4,1.5-0.8,2.3-1.3c2.7-1.601,5.4-3.3,8-5.101c5.2-3.5,10.2-7.3,14.9-11.5
		c2.299-2,4.6-4.199,6.699-6.399c1-1.101,2-2.2,2.9-3.4c0.3-0.399,0.5-0.2,0.9,0c0.399,0.101,0.699,0.3,1.1,0.4
		c0.8,0.3,1.7,0.7,2.5,1c5.9,2.3,12,4.3,18.1,6.1c0.7,0.2,1.5,0.4,2.2,0.601c0.5,0.199,0.4,0.3,0.4,0.899c0,0.4,0,0.8,0,1.101
		c0.1,1.6,0.2,3.3,0.399,4.899c0.4,3.2,1,6.4,1.601,9.5c1.399,6.3,3.2,12.5,5.3,18.601c1,3,2.1,5.899,3.4,8.699
		c0.199,0.4,0.5,1.5,0.899,1.7c0.5,0.2,1.101,0.3,1.7,0.5c1.6,0.3,3.2,0.5,4.9,0.8c3.199,0.4,6.5,0.9,9.699,1.2
		c1.5,0.2,3,0.4,4.5,0.5c0.9,0,1.2-0.1,1.7-0.7c0.601-0.6,1.101-1.3,1.7-2c3.9-4.899,7.3-10.3,10.5-15.699
		c3.1-5.4,6.1-10.9,8.3-16.7c0.5-1.4,1-2.8,1.5-4.2c0.101-0.4,0.2-0.7,0.3-1.1c0.101-0.5,0.4-0.4,0.9-0.4c0.9,0,1.8,0,2.7,0
		c3.3-0.1,6.5-0.2,9.8-0.4c3.3-0.199,6.5-0.5,9.8-0.899c0.8-0.101,1.601-0.2,2.4-0.3c0.5-0.101,0.7-0.301,0.899,0.199
		c0.101,0.301,0.301,0.7,0.4,1c0.6,1.4,1.4,2.801,2.1,4.2c3,5.5,6.7,10.601,10.5,15.5c3.801,4.9,7.9,9.8,12.4,14.101
		c0.7,0.699,1.9,2.199,2.9,2.199c1.6-0.1,3.199-0.6,4.699-1c3.2-0.8,6.301-1.699,9.4-2.5c1.4-0.399,2.9-0.8,4.3-1.199
		c0.601-0.2,1.3-0.4,1.8-0.601c0.8-0.399,0.9-1.1,1.2-1.899c1-3,1.7-6.2,2.3-9.301c1.3-6.3,2.3-12.8,2.8-19.199
		c0.301-3.301,0.4-6.5,0.4-9.801c0-1.6-0.1-3.1-0.2-4.699c0-0.4-0.1-0.7-0.1-1.101c-0.101-0.5-0.3-0.7,0.3-0.899
		c0.8-0.301,1.6-0.7,2.4-1c5.8-2.5,11.399-5.2,16.899-8.2c1.3-0.7,2.601-1.4,3.9-2.2c1.1,1.1,2.3,2.2,3.5,3.2
		c2.399,2,4.899,3.8,7.399,5.5c5.301,3.6,10.801,6.7,16.5,9.6c2.801,1.4,5.7,2.8,8.601,4c1.399,0.601,2.7,1.101,4.2,1.5
		c0.3,0.101,1.1-0.5,1.3-0.7c0.7-0.5,1.399-1,2.1-1.5c2.601-1.899,5.2-3.899,7.7-5.899c1.2-0.9,2.4-1.9,3.6-2.8
		c0.9-0.7,2.801-1.801,2.7-3.101c-0.2-6.399-1.8-12.8-3.3-19s-3.3-12.3-5.7-18.1c-0.6-1.4-1.2-2.7-1.8-4.101c-0.3-0.699-0.7-1.3-1-2
		c-0.2-0.3-0.4-0.699-0.5-1c-0.3-0.5,0.2-0.699,0.6-1.1c2.2-2.2,4.301-4.5,6.4-6.9c2.1-2.3,4.1-4.699,6.1-7.1
		c1-1.2,1.9-2.3,2.801-3.5c0.199-0.3,0.5-0.6,0.699-0.9c0.301-0.399,0.301-0.699,0.801-0.399c0.8,0.3,1.699,0.6,2.5,0.899
		c6.1,2.101,12.5,3.301,18.8,4.2c6.399,0.9,12.8,1.5,19.3,1.601c1.5,0,3.1,0,4.6-0.101c0.7-0.1,0.8-0.1,1.3-0.7
		c0.5-0.699,1-1.399,1.4-2.1c1.7-2.8,3.3-5.6,4.9-8.4c0.8-1.3,1.5-2.699,2.3-4c0.6-1.1,1.7-2.6,1.9-3.899
		c0.1-0.601-0.601-1.4-0.801-1.9c-0.3-0.7-0.699-1.3-1.1-2c-0.8-1.399-1.7-2.8-2.5-4.2c-3.4-5.3-7.1-10.399-11-15.3
		c-3.9-4.8-8.1-9.5-13-13.3c-0.4-0.3-0.2-0.5,0-0.9c0.1-0.399,0.3-0.699,0.4-1.1c0.3-0.7,0.6-1.4,0.8-2.1
		c0.6-1.5,1.2-3.101,1.7-4.601c1.1-3,2.1-6,3-9c0.5-1.5,0.899-2.899,1.3-4.399c0.2-0.7,0.399-1.5,0.6-2.2c0.101-0.5,0-0.7,0.601-0.7
		c0.5,0,1,0,1.5,0c3.199-0.1,6.3-0.6,9.5-1.1c6.399-1.101,12.6-2.7,18.8-4.7c3-1,6-2,9-3.101c1.399-0.5,2.8-1.1,4.1-1.699
		c0.7-0.301,1.3-0.601,1.9-1c0.399-0.2,0.5-1.4,0.5-1.801c0.6-3.3,1-6.6,1.399-9.899c0.2-1.7,0.4-3.3,0.601-5
		C-68.89,322.556-68.489,320.755-68.689,319.255C-68.689,319.056-68.689,319.755-68.689,319.255z M-147.089,291.055
		c0.8,25.3-4.101,50.2-13.601,73.5c-9.1,22.1-23.3,42.3-40.5,58.8c-18,17.2-39.7,30.5-63.3,38.6c-23.8,8.2-49.1,11.4-74.2,9
		c-24.8-2.399-49.1-10.2-70.7-22.6c-21.3-12.3-40-29.101-54.399-49c-14.6-20.2-24.8-43.5-29.7-67.9c-5-24.6-4.7-50.2,1.1-74.6
		c5.6-23.7,16.1-46.2,30.8-65.6c14.9-19.8,34-36.3,55.8-48.2c22.399-12.2,47.399-19.3,72.8-21c24.9-1.7,50.3,2.3,73.6,11.2
		c22.7,8.7,43.5,22.1,60.7,39.2c17.601,17.5,31.4,38.6,40.2,61.8C-151.589,252.355-147.689,271.655-147.089,291.055
		C-146.989,292.255-147.089,290.955-147.089,291.055z"/>
</g>
<g id="Eagle">
	<g id="_x33_322_Numbers">
		<path id="_x32_-2_Outline" fill="none" stroke="#000000" stroke-width="2" d="M-307.89,181.956c2.2-1.6,4.5-4.1,5.801-7.1
			c0.8-1.8,1-3.3,1-5.1c0.1-5.6-1.801-11-6.2-15.3c-4.5-4.4-10.3-6-17.101-6c-4.8,0-9.1,1.2-12.899,3.5c1.1,0.7,2.2,1.5,3.1,2.5
			c3.7,3.6,5.601,7.9,6.101,12.5c0.8-1,2.199-1.7,3.699-1.7c2.801,0,4.7,1.9,4.7,4.2c0,0.2,0,0.5-0.1,0.8
			c-0.9,1.6-1.5,1.9-2.601,2.8c-0.3,0.3-15.3,11.2-21.5,15.7h15.9v15.7h26.9v-15.7h-17L-307.89,181.956z"/>
		<path id="_x32_-2_Character" fill="#FFFFFF" d="M-307.89,180.956c2.2-1.6,4.5-4.1,5.801-7.1c0.8-1.8,1-3.3,1-5.1
			c0.1-5.6-1.801-11-6.2-15.3c-4.5-4.4-10.3-6-17.101-6c-4.8,0-9.1,1.2-12.899,3.5c1.1,0.7,2.2,1.5,3.1,2.5
			c3.7,3.6,5.601,7.9,6.101,12.5c0.8-1,2.199-1.7,3.699-1.7c2.801,0,4.7,1.9,4.7,4.2c0,0.2,0,0.5-0.1,0.8
			c-0.9,1.6-1.5,1.9-2.601,2.8c-0.3,0.3-15.3,11.2-21.5,15.7h15.9v15.7h26.9v-15.7h-17L-307.89,180.956z"/>
		<path id="_x32_-1_Outline" fill="none" stroke="#000000" stroke-width="2" d="M-334.689,181.956c2.2-1.6,4.5-4.1,5.8-7.1
			c0.801-1.8,1-3.3,1-5.1c0.101-5.6-1.8-11-6.199-15.3c-4.5-4.4-10.301-6-17.101-6c-1.1,0-2.2,0.1-3.3,0.2h0.2l-10.5,18.6l9,1.7
			c0.3-2.1,2.2-3.7,4.6-3.7c2.8,0,4.7,1.9,4.7,4.2c0,0.2,0,0.5-0.1,0.8c-0.9,1.6-1.5,1.9-2.601,2.8c-0.1,0.1-2.899,2.2-6.5,4.8
			c0.601,1.8,1,3.8,1,6c0,10-7.6,18.3-17.899,20.6h44.6v-15.7h-17L-334.689,181.956z"/>
		<path id="_x32_-1_Character" fill="#FFFFFF" d="M-334.689,180.956c2.2-1.6,4.5-4.1,5.8-7.1c0.801-1.8,1-3.3,1-5.1
			c0.101-5.6-1.8-11-6.199-15.3c-4.5-4.4-10.301-6-17.101-6c-1.1,0-2.2,0.1-3.3,0.2h0.2l-10.5,18.6l9,1.7c0.3-2.1,2.2-3.7,4.6-3.7
			c2.8,0,4.7,1.9,4.7,4.2c0,0.2,0,0.5-0.1,0.8c-0.9,1.6-1.5,1.9-2.601,2.8c-0.1,0.1-2.899,2.2-6.5,4.8c0.601,1.8,1,3.8,1,6
			c0,10-7.6,18.3-17.899,20.6h44.6v-15.7h-17L-334.689,180.956z"/>
		<path id="_x33_-2_Outline" fill="none" stroke="#000000" stroke-width="2" d="M-365.089,167.755l10.8-19h-26.7l-8.1,14.3
			l12.899,0.2l-8.3,10.7c0.5,0.7,0.9,1.3,1.2,2.1l7.899,2.7c2.7,0.9,2.801,4.1,2.7,5.2c-0.3,2.7-2.399,4.9-5.399,4.9
			c-1.301,0-2.601-0.4-3.7-1.1c-1.101,5.6-4.7,10.4-9.601,13.5c3.801,2.4,8.301,3.8,13.301,3.8c12.899,0,23.3-9.4,23.3-21.2
			C-354.689,175.855-359.789,170.355-365.089,167.755z"/>
		<path id="_x33_-2_Character" fill="#FFFFFF" d="M-365.089,166.755l10.8-19h-26.7l-8.1,14.3l12.899,0.2l-8.3,10.7
			c0.5,0.7,0.9,1.3,1.2,2.1l7.899,2.7c2.7,0.9,2.801,4.1,2.7,5.2c-0.3,2.7-2.399,4.9-5.399,4.9c-1.301,0-2.601-0.4-3.7-1.1
			c-1.101,5.6-4.7,10.4-9.601,13.5c3.801,2.4,8.301,3.8,13.301,3.8c12.899,0,23.3-9.4,23.3-21.2
			C-354.689,174.855-359.789,169.355-365.089,166.755"/>
		<path id="_x33_-1_Outline" fill="none" stroke="#000000" stroke-width="2" d="M-380.989,148.655h-43.4l0.8,14.1l20.8,0.4l-9.3,12
			l10.199,3.5c2.7,0.9,2.801,4.1,2.7,5.2c-0.3,2.7-2.399,4.9-5.399,4.9c-2.9,0-5.7-2-7.2-4.8c-0.101-0.2-15.7,3.6-15.7,3.6
			c2,9.9,11.4,17.4,22.9,17.4c12.899,0,23.3-9.4,23.3-21.2c0-8.1-5.101-13.7-10.4-16.2L-380.989,148.655z"/>
		<path id="_x33_-1_Character" fill="#FFFFFF" d="M-391.689,166.755c5.3,2.6,10.4,8.1,10.4,16.2c0,11.7-10.4,21.2-23.3,21.2
			c-11.4,0-20.9-7.5-22.9-17.4c0,0,15.6-3.7,15.7-3.6c1.5,2.8,4.3,4.8,7.2,4.8c3,0,5.1-2.2,5.399-4.9c0.2-1.1,0-4.3-2.7-5.2
			l-10.1-3.6l9.3-12l-20.8-0.4l-0.8-14.1h43.3L-391.689,166.755z"/>
	</g>
	<g id="Eagle_Elements">
		<g id="Head">
			<g>
				<path fill="#76B2DD" d="M-182.39,352.756l-213.199-17.1c37.5-4.2,71.699-26.4,88.699-49.901l0,0c0,30.901,95.4,32,119.2,55.5
					C-184.689,348.556-182.39,352.756-182.39,352.756z"/>
				<path fill="#FFFFFF" d="M-205.089,202.456c18.1,21.8,9.3,48.2,9.3,48.2c-9.101,38.6,1.1,73.2,8.1,90.501
					c-23.8-23.5-119.2-24.5-119.2-55.501l0,0c10-13.9,14-28.3,9.101-39.7c0.899-3,1.7-5.5,2.3-7.6c3.4-12.1,2.2-14.6-6-30.9
					C-275.39,181.055-223.189,180.755-205.089,202.456z"/>
				<path fill="#B3B3B3" d="M-301.489,207.456c8.1,16.3,9.4,18.8,6,30.9c0,0-32.4-5.7-30.2,3.3c-4.5,3.6-8.8,15.1-8.8,15.1
					C-343.289,209.055-301.489,207.456-301.489,207.456z"/>
				<path fill="#B3B3B3" d="M-295.489,238.355c-0.6,2.2-1.4,4.7-2.3,7.6c-13.4-0.6-27.9-4.3-27.9-4.3
					C-327.89,232.655-295.489,238.355-295.489,238.355z"/>
			</g>
			<g>
				<path fill="none" stroke="#231F20" stroke-width="3.75" d="M-301.489,207.456c0,0-41.8,1.5-33,49.3c0,0,4.3-11.5,8.8-15.1
					c0,0,14.5,3.7,27.9,4.3c4.899,11.4,0.899,25.8-9.101,39.7c-17,23.601-51.199,45.801-88.699,49.9l213.199,17.101
					c0,0-2.399-4.2-5.3-11.601c-7-17.2-17.2-51.9-8.1-90.5c0,0,8.8-26.4-9.3-48.2C-223.189,180.755-275.39,181.055-301.489,207.456z
					"/>
				<path fill="none" stroke="#231F20" stroke-width="1.25" d="M-301.489,207.456c8.1,16.3,9.4,18.8,6,30.9
					c-0.6,2.2-1.4,4.7-2.3,7.6"/>
				<path fill="none" stroke="#231F20" stroke-width="1.25" d="M-325.789,241.655c-2.2-9,30.2-3.3,30.2-3.3"/>
			</g>
		</g>
		<g id="Eye_1_">
			<g>
				<path fill="#76B2DD" d="M-262.689,216.355c8.5,8.8-21.899,0.7-21.899,0.7S-271.189,207.555-262.689,216.355z"/>
			</g>
			<g>
				<path fill="none" stroke="#231F20" d="M-284.589,216.956c0,0,13.399-9.4,21.899-0.7
					C-254.189,225.055-284.589,216.956-284.589,216.956z"/>
			</g>
		</g>
		<path id="Wings" fill="#76B2DD" stroke="#231F20" stroke-width="3.75" stroke-miterlimit="6" d="M-197.989,273.456
			c0,0,77.1,46.1,51.1,130.201l-11-9c0,0,1,20.6-14.6,43.699l-8.2-16.3c0,0-13.1,30.2-23.1,40.5l-7.5-18.8c0,0-18.5,32-43,49.7
			l4.3-32c0,0-33.4,28.399-77,36.6l30.2-40.8c0,0-39.4,29.8-111.5,22.7l60.7-41.9c0,0-60,21-111.5,5l73.1-36.2
			c0,0-42.6,11.7-109-15.6l76-20.9c0,0-71,0.4-111.5-49.3l61.8,2.8c0,0-46.2-31.6-44.4-75.3l43.3,39.4c0,0-22.7-27.3-1.8-98.7
			c0,0,10.6,90.8,81.8,128.201c71.2,37.399,138.8,23.5,175.6-23.5l1.2,9.7L-197.989,273.456z"/>
		<g id="Feather_Dividers">
			<polygon fill="#231F20" points="-160.289,347.756 -156.089,394.556 -159.789,394.656 			"/>
			<path fill="#231F20" d="M-177.189,349.855c0,0,1.2,4.5,2.3,11.301c0.601,3.399,1.2,7.399,1.601,11.699
				c0.3,2.2,0.399,4.4,0.6,6.601c0.2,2.3,0.2,4.6,0.3,6.899c0.101,2.301,0,4.601-0.1,6.9s-0.3,4.5-0.5,6.7c-0.3,2.2-0.5,4.3-0.9,6.2
				c-0.399,2-0.8,3.8-1.199,5.6c-0.5,1.7-1,3.2-1.4,4.6c-0.4,1.4-1,2.5-1.4,3.5c-0.8,1.9-1.3,3-1.3,3l-3.2-1.699c0,0,0.5-1,1.4-2.7
				c0.4-0.9,1.1-1.9,1.5-3.2c0.5-1.3,1-2.7,1.6-4.3c0.4-1.601,0.9-3.4,1.4-5.3c0.4-1.9,0.7-3.9,1.1-6c0.3-2.101,0.5-4.301,0.8-6.5
				c0.101-2.2,0.4-4.5,0.4-6.801c0-2.3,0.1-4.6,0-6.8c0-2.3-0.1-4.5-0.2-6.6c-0.2-4.3-0.6-8.3-1-11.7
				C-176.289,354.355-177.189,349.855-177.189,349.855"/>
			<path fill="#231F20" d="M-197.189,351.156c0,0,0.4,1.5,0.8,4c0.301,1.3,0.5,2.899,0.801,4.699c0.199,1.801,0.6,3.801,0.8,6.101
				c0.2,2.2,0.5,4.7,0.6,7.2c0.2,2.6,0.2,5.3,0.3,8.1c0,2.8,0,5.7-0.199,8.7c-0.2,2.899-0.301,6-0.7,8.899c-0.2,1.5-0.4,3-0.601,4.5
				c-0.199,1.5-0.5,3-0.8,4.4c-0.3,1.5-0.5,2.9-0.8,4.3c-0.4,1.4-0.7,2.8-1.1,4.2c-0.4,1.4-0.7,2.7-1,4c-0.4,1.3-0.9,2.6-1.301,3.8
				c-0.8,2.5-1.6,4.8-2.6,6.9c-0.9,2.1-1.7,4-2.5,5.7c-0.9,1.6-1.7,3-2.3,4.199c-1.3,2.301-2,3.7-2,3.7l-3.101-1.899
				c0,0,0.801-1.301,2.101-3.5c0.7-1.101,1.5-2.4,2.399-4c0.801-1.601,1.7-3.4,2.601-5.4c1-2,1.899-4.2,2.7-6.6
				c0.5-1.2,0.899-2.4,1.399-3.7c0.4-1.3,0.8-2.601,1.2-3.9s0.8-2.7,1.2-4.1c0.3-1.4,0.6-2.8,1-4.2c0.3-1.4,0.7-2.9,0.899-4.3
				c0.2-1.5,0.5-2.9,0.7-4.4c0.601-2.899,0.7-5.899,1.101-8.8c0.199-2.9,0.399-5.8,0.5-8.6c0-2.801,0.1-5.5,0-8.101
				c0-2.6-0.2-5-0.301-7.2c-0.1-2.199-0.399-4.3-0.5-6.1c-0.199-1.8-0.399-3.4-0.6-4.7
				C-196.89,352.656-197.189,351.156-197.189,351.156"/>
			<path fill="#231F20" d="M-219.489,356.556c0,0,1.7,7,1.9,17.7c0.1,2.7,0,5.6-0.101,8.6c-0.1,1.5-0.2,3.101-0.3,4.7
				c-0.1,1.601-0.2,3.2-0.5,4.9c-0.2,1.7-0.4,3.3-0.7,5.1c-0.3,1.7-0.6,3.4-1,5.101c-0.6,3.5-1.6,6.899-2.5,10.399
				c-0.2,0.9-0.399,1.7-0.7,2.601l-0.899,2.5c-0.601,1.699-1.2,3.399-1.7,5c-1.2,3.3-2.7,6.5-4,9.6c-1.4,3.1-3,5.9-4.4,8.6
				c-1.3,2.801-3.1,5.2-4.5,7.5c-0.699,1.101-1.399,2.2-2.1,3.301c-0.3,0.5-0.7,1-1,1.5c-0.4,0.5-0.7,0.899-1,1.399
				c-1.3,1.7-2.5,3.3-3.4,4.5c-1.899,2.5-3,3.9-3,3.9l-2.8-2.3c0,0,1.101-1.4,3-3.801c1-1.199,2.101-2.699,3.5-4.3
				c0.3-0.399,0.7-0.8,1-1.3s0.601-1,1-1.5c0.7-1,1.4-2,2.101-3.1c1.399-2.2,3.199-4.5,4.6-7.2s3.2-5.4,4.6-8.3
				c1.4-3,2.9-6,4.2-9.301c0.601-1.6,1.2-3.3,1.9-4.899l0.899-2.5c0.301-0.8,0.5-1.7,0.801-2.5c1-3.4,2.1-6.7,2.8-10.2
				c0.399-1.7,0.8-3.4,1.1-5c0.3-1.7,0.5-3.3,0.8-5c0.301-1.6,0.5-3.3,0.601-4.8c0.2-1.601,0.3-3.101,0.5-4.7
				c0.1-3,0.399-5.9,0.3-8.6C-218.089,363.556-219.489,356.556-219.489,356.556"/>
			<path fill="#231F20" d="M-243.589,363.556c0,0,0,1.7-0.301,4.8c-0.1,1.5-0.399,3.4-0.6,5.5c-0.3,2.101-0.7,4.5-1.2,7
				c-0.5,2.601-1.2,5.301-1.899,8.2c-0.801,2.9-1.7,5.9-2.801,9c-1.199,3-2.199,6.3-3.699,9.4c-0.7,1.6-1.4,3.2-2.101,4.8
				c-0.8,1.6-1.6,3.1-2.5,4.6c-1.6,3.101-3.5,6.101-5.3,9c-1.7,3-4,5.601-5.9,8.301c-0.5,0.699-1,1.3-1.5,2
				c-0.5,0.6-1.1,1.199-1.6,1.8c-1.1,1.2-2.1,2.3-3.1,3.5c-1,1.1-1.9,2.3-3,3.2c-1,1-2,1.899-3,2.8c-2,1.8-3.601,3.5-5.4,4.8
				c-1.7,1.3-3.2,2.5-4.4,3.4c-2.5,1.899-3.899,3-3.899,3l-2-3c0,0,1.399-1,3.8-2.801c1.2-0.899,2.7-1.899,4.4-3.199
				c1.699-1.2,3.399-2.9,5.399-4.5c1-0.801,2-1.7,3-2.601c1.101-0.899,2-2,3-3.1c1-1.101,2.101-2.2,3.101-3.3
				c0.5-0.601,1.1-1.101,1.6-1.7c0.5-0.601,1-1.2,1.5-1.9c2-2.6,4.2-5,6.1-7.899c1.9-2.801,3.9-5.601,5.5-8.7
				c0.9-1.5,1.7-3,2.601-4.5c0.8-1.5,1.5-3.101,2.3-4.601c1.6-3,2.7-6.199,4-9.199c1.1-3,2.2-6,3-8.9s1.6-5.6,2.2-8.1
				c0.6-2.5,1-4.9,1.5-7c0.3-2.101,0.6-3.9,0.8-5.4C-243.589,365.256-243.589,363.556-243.589,363.556"/>
			<path fill="#231F20" d="M-276.189,368.656c0,0-0.6,1.5-1.899,3.899c-1.301,2.5-3.101,6-5.601,10c-1.2,2.101-2.7,4.2-4.2,6.5
				s-3.3,4.601-5,7c-1.899,2.3-3.699,4.8-5.8,7.101c-1,1.199-2.1,2.399-3.1,3.6c-1.101,1.2-2.2,2.3-3.3,3.4
				c-2.2,2.3-4.601,4.5-6.9,6.6c-2.3,2.2-4.8,4-7.1,5.9c-2.301,2-4.7,3.5-7,5.1c-1.101,0.8-2.2,1.6-3.301,2.3
				c-1.1,0.7-2.199,1.3-3.199,1.9c-2.101,1.2-3.9,2.399-5.7,3.3s-3.3,1.6-4.5,2.3c-2.5,1.3-4,2-4,2l-1.4-3.3c0,0,1.4-0.6,3.9-1.8
				c1.2-0.601,2.8-1.3,4.5-2c1.7-0.8,3.6-1.9,5.6-3c1-0.601,2.101-1.2,3.2-1.8c1.1-0.7,2.2-1.4,3.3-2.101c2.2-1.5,4.7-2.899,7-4.8
				c2.3-1.8,4.9-3.5,7.2-5.6c2.4-2,4.8-4,7-6.2c1.1-1.101,2.3-2.2,3.4-3.3c1.1-1.101,2.199-2.301,3.199-3.4c2.2-2.2,4.101-4.6,6-6.9
				c1.9-2.3,3.601-4.5,5.301-6.699c1.6-2.2,3.1-4.301,4.399-6.301c2.7-3.899,4.601-7.399,6-9.8
				C-276.89,370.056-276.189,368.656-276.189,368.656"/>
			<path fill="#231F20" d="M-322.689,364.456c0,0-2.6,4.1-7.5,9.5c-1.2,1.399-2.6,2.8-4.1,4.3c-1.5,1.4-3.101,3-4.8,4.5
				c-0.9,0.8-1.7,1.5-2.601,2.3c-0.899,0.7-1.8,1.5-2.8,2.2c-1.8,1.5-3.9,2.9-5.8,4.3c-2,1.4-4.101,2.7-6.101,4s-4.1,2.4-6.1,3.5
				c-2,1.101-4,2-5.9,2.9c-1.899,1-3.699,1.6-5.399,2.399c-1.7,0.7-3.2,1.4-4.7,1.801c-1.4,0.5-2.6,0.899-3.7,1.199
				c-2,0.7-3.2,1.101-3.2,1.101l-1-3.5c0,0,1.101-0.3,3.2-0.9c1-0.3,2.2-0.6,3.601-1c1.399-0.399,2.899-1,4.6-1.6
				c1.7-0.601,3.5-1.2,5.4-2.101c1.899-0.8,3.899-1.6,5.899-2.6s4.101-2,6.2-3.2c2-1.2,4.2-2.3,6.2-3.6s4.1-2.601,6-4
				c1-0.7,1.899-1.4,2.899-2.101c0.9-0.699,1.801-1.399,2.7-2.1c1.8-1.4,3.4-2.9,5-4.2c1.5-1.399,3-2.7,4.2-4
				C-325.489,368.355-322.689,364.456-322.689,364.456"/>
			<path fill="#231F20" d="M-361.489,348.756c0,0-0.3,1-1.4,2.4c-0.5,0.699-1.199,1.5-2.1,2.399c-0.8,0.9-1.9,1.7-3.1,2.7
				c-1.2,0.8-2.5,1.8-4,2.6c-1.5,0.9-3.101,1.7-4.801,2.5c-1.699,0.801-3.5,1.5-5.3,2.301c-1.8,0.699-3.7,1.3-5.6,2
				c-1.9,0.6-3.8,1.1-5.7,1.6s-3.8,0.9-5.6,1.3c-1.801,0.5-3.601,0.8-5.301,1.101c-1.699,0.3-3.3,0.6-4.699,0.899
				c-1.5,0.3-2.801,0.4-4,0.601c-1.2,0.199-2.2,0.3-3.101,0.399c-1.7,0.2-2.7,0.4-2.7,0.4l-0.3-3.601c0,0,1-0.1,2.7-0.199
				c0.9-0.101,1.9-0.2,3.1-0.301c1.2-0.1,2.5-0.199,4-0.399s3-0.4,4.7-0.601c1.7-0.199,3.4-0.399,5.2-0.8c1.8-0.3,3.7-0.6,5.6-1
				c1.9-0.399,3.801-0.899,5.7-1.3c1.9-0.5,3.8-1,5.601-1.6c1.8-0.7,3.6-1.2,5.3-1.9s3.3-1.4,4.8-2.2c1.5-0.7,2.8-1.6,4.1-2.399
				c1.2-0.9,2.301-1.601,3.2-2.5c0.9-0.801,1.601-1.601,2.2-2.2C-361.89,349.756-361.489,348.756-361.489,348.756"/>
			<path fill="#231F20" d="M-405.789,329.855c0,0-3.9,0.7-9.9,1.101c-1.5,0.1-3.1,0.2-4.8,0.3s-3.5,0.1-5.4,0.2c-1.9,0-3.8,0-5.8,0
				c-2-0.101-4-0.101-6-0.3c-2-0.101-4-0.301-6-0.5c-2-0.2-3.9-0.4-5.8-0.7c-1.9-0.2-3.7-0.601-5.4-0.9c-1.7-0.3-3.3-0.6-4.8-1
				c-1.5-0.399-2.8-0.7-4-1c-1.2-0.399-2.2-0.7-3.1-0.899c-1.7-0.5-2.7-0.801-2.7-0.801l1.2-3.399c0,0,0.9,0.3,2.5,0.899
				c0.8,0.301,1.8,0.601,2.9,1c1.1,0.301,2.4,0.7,3.8,1.2s3,0.8,4.6,1.2s3.4,0.8,5.2,1.2c1.8,0.399,3.7,0.7,5.6,1
				c1.9,0.3,3.9,0.6,5.8,0.8c2,0.3,3.9,0.4,5.9,0.6c1.9,0.2,3.9,0.2,5.7,0.4c1.9,0,3.7,0.1,5.399,0.1c1.7,0,3.301,0,4.801,0
				C-409.789,330.256-405.789,329.855-405.789,329.855"/>
			<path fill="#231F20" d="M-432.489,311.355c0,0-0.7-0.1-1.8-0.5c-0.6-0.1-1.3-0.399-2.1-0.699c-0.8-0.301-1.7-0.601-2.6-1.101
				c-0.9-0.399-2-0.899-3.1-1.399c-1.1-0.601-2.2-1.101-3.3-1.7c-1.2-0.601-2.4-1.2-3.5-2c-1.2-0.7-2.4-1.4-3.6-2.101
				c-2.4-1.399-4.7-3-6.9-4.5c-1.1-0.7-2.2-1.399-3.1-2.1c-1-0.7-1.9-1.4-2.7-2c-3.4-2.5-5.6-4.1-5.6-4.1l2.3-2.8
				c0,0,2.1,1.8,5.2,4.5c0.8,0.7,1.6,1.4,2.5,2.2c0.9,0.8,1.9,1.5,2.9,2.3c2,1.601,4.1,3.4,6.4,5c1.1,0.801,2.2,1.601,3.4,2.4
				c1.1,0.8,2.2,1.5,3.3,2.2c1.1,0.7,2.2,1.3,3.2,2c1,0.6,2,1.1,2.9,1.6c0.9,0.5,1.8,0.9,2.5,1.3c0.8,0.301,1.4,0.7,2,0.9
				C-433.189,311.156-432.489,311.355-432.489,311.355"/>
		</g>
		<g id="Sash">
			<g>
				<path fill="#ED1C24" d="M-316.589,297.155c16,17.801,91.8,47.2,159.699,18.601c4.801,7.9,8.9,16.9,11.7,26.9
					c-48.7,26-180.7,11.8-183.899-32l9.5-20.801l0.1,0.1C-320.089,291.855-319.089,294.355-316.589,297.155z"/>
				<path fill="#ED1C24" d="M-306.89,285.655c-2.8,3.9-6,7.7-9.699,11.4c-2.5-2.8-3.5-5.2-2.9-7.1
					C-318.589,287.355-314.589,285.655-306.89,285.655z"/>
			</g>
			<g>
				<path fill="none" stroke="#231F20" stroke-width="3.75" d="M-156.89,315.756c4.801,7.9,8.9,16.9,11.7,26.9"/>
				<path fill="none" stroke="#231F20" stroke-width="3.75" d="M-306.89,285.655c-2.8,3.9-6,7.7-9.699,11.4l0,0"/>
				<path fill="none" stroke="#231F20" stroke-width="3.75" stroke-linecap="round" stroke-linejoin="round" d="M-306.89,285.655
					c-7.699,0-11.699,1.6-12.6,4.3c-0.6,1.9,0.4,4.4,2.9,7.1c16,17.8,91.8,47.2,159.699,18.601"/>
				<path fill="none" stroke="#231F20" stroke-width="3.75" stroke-linecap="round" stroke-miterlimit="6" d="M-145.189,342.656
					c-48.7,26-180.7,11.8-183.899-32"/>
				
					<line fill="none" stroke="#231F20" stroke-width="3.75" stroke-linecap="round" stroke-miterlimit="6" x1="-319.589" y1="289.855" x2="-329.089" y2="310.656"/>
			</g>
		</g>
		<g id="Helmet_1_">
			<path fill="#B3B3B3" stroke="#231F20" stroke-width="2.75" d="M-286.789,279.055c0,0,46.8,41.5,71.2-9.5c0,0,4.1-7-0.101-16.2
				c0,0-1.3-10.9,7.4-18.8c0,0-25.5-13-27.3-15.9c0,0-2,9.2-13.7,10.7s-21.3,2-18.4,12.4c2.9,10.4,13,10.8-4.399,21.9
				C-272.089,263.555-301.289,260.355-286.789,279.055z"/>
			<path fill="#ED1C24" stroke="#231F20" stroke-width="3.75" d="M-214.589,96.555c-32,0-60.4,14.8-78.9,38l32,10.2
				c12.5-11.1,28.9-17.9,47-17.9c39.1,0,70.7,31.7,70.7,70.7c0,25.8-13.9,48.4-34.601,60.8l5,31.5c35.301-15.8,59.9-51.1,59.9-92.3
				C-113.589,141.855-158.789,96.555-214.589,96.555"/>
			<path fill="#B3B3B3" stroke="#231F20" stroke-width="1.25" d="M-214.989,127.555c-18,0-34.3,6.7-46.8,17.8l12.6,17.1
				c8.9-8.5,20.9-13.8,34.2-13.8c27.2,0,49.3,22.1,49.3,49.3c0,18.7-10.399,34.9-25.7,43.3l12.601,17.1
				c20.5-12.3,34.2-34.8,34.2-60.4C-144.489,159.155-176.089,127.555-214.989,127.555"/>
			<path fill="#B3B3B3" stroke="#231F20" stroke-width="2.75" stroke-linecap="round" d="M-289.39,198.755c0,0,4-26.6,37.101-38.8
				c0,0,41.6-15.8,66.399,26.4c7.801,13.3,12.2,32.3,1.301,55.9c0,0,3.6,7.5-1.7,10c0,0,2.8,7-1.3,9.7c-4.101,2.8,2.6,4,7.8,4.8
				c5.2,0.7,28.8,22.4,23,32.401c0,0,0.6,6.399-19.4-8.601c-20-15.1-28.2-19.2-28-24.3c0.2-5.2,15.101-32.7,12.5-37.7
				c-2.6-4.9-8.1,1.5-9,3.9c-1,2.5-5.2,3.6-8.899,2.5C-213.189,233.956-274.689,198.655-289.39,198.755"/>
			<path fill="#231F20" d="M-232.39,230.755c0,1-0.8,1.8-1.8,1.8s-1.8-0.8-1.8-1.8s0.8-1.8,1.8-1.8S-232.39,229.755-232.39,230.755"
				/>
			<path fill="#231F20" d="M-218.289,238.355c0,1-0.8,1.8-1.8,1.8s-1.801-0.8-1.801-1.8s0.801-1.8,1.801-1.8
				S-218.289,237.355-218.289,238.355"/>
		</g>
	</g>
</g>
<g>
	<g>
		<path d="M144.232,358.352v20.163c0,2.117-1.059,3.172-3.172,3.172H91.898c-2.116,0-3.171-1.055-3.171-3.172V226.271
			c0-2.113,1.055-3.172,3.171-3.172h49.162c2.113,0,3.172,1.059,3.172,3.172v20.163c0,2.117-1.059,3.172-3.172,3.172h-25.826v32.624
			h22.429c2.113,0,3.171,1.059,3.171,3.172v20.164c0,2.117-1.058,3.172-3.171,3.172h-22.429v46.443h25.826
			C143.174,355.18,144.232,356.238,144.232,358.352z"/>
		<path d="M229.188,378.515c0.301,2.117-0.605,3.172-2.719,3.172h-20.616c-1.965,0-3.098-1.055-3.398-3.172l-1.812-24.468h-14.046
			l-1.812,24.468c-0.305,2.117-1.438,3.172-3.398,3.172h-20.616c-2.117,0-3.023-1.055-2.719-3.172l16.991-152.244
			c0.301-2.113,1.508-3.172,3.625-3.172h29.905c2.113,0,3.32,1.059,3.625,3.172L229.188,378.515z M198.829,328.673l-4.305-61.396
			h-1.812l-4.304,61.396H198.829z"/>
		<path d="M290.128,223.778c3.473,1.511,6.492,3.55,9.062,6.117c2.566,2.57,4.605,5.59,6.117,9.062
			c1.508,3.476,2.266,7.175,2.266,11.101v7.25c0,2.117-0.984,3.476-2.945,4.078l-20.616,7.476c-1.965,0.605-2.945-0.148-2.945-2.266
			v-15.405c0-1.508-0.531-2.793-1.586-3.852c-1.059-1.055-2.344-1.586-3.852-1.586h-1.812c-1.511,0-2.796,0.531-3.851,1.586
			c-1.059,1.059-1.586,2.343-1.586,3.852v102.402c0,1.512,0.527,2.797,1.586,3.852c1.055,1.059,2.34,1.586,3.851,1.586h1.812
			c1.508,0,2.793-0.527,3.852-1.586c1.055-1.055,1.586-2.34,1.586-3.852v-40.326h-6.344V287.44H304.4
			c2.113,0,3.172,1.058,3.172,3.172v64.115c0,3.93-0.758,7.629-2.266,11.102c-1.512,3.476-3.551,6.495-6.117,9.062
			c-2.569,2.57-5.589,4.609-9.062,6.117c-3.477,1.508-7.176,2.266-11.102,2.266h-8.608c-3.93,0-7.629-0.758-11.102-2.266
			c-3.477-1.508-6.496-3.547-9.062-6.117c-2.569-2.566-4.608-5.586-6.116-9.062c-1.512-3.473-2.266-7.172-2.266-11.102V250.059
			c0-3.926,0.754-7.625,2.266-11.101c1.508-3.473,3.547-6.492,6.116-9.062c2.566-2.566,5.586-4.605,9.062-6.117
			c3.473-1.508,7.172-2.266,11.102-2.266h8.608C282.952,221.513,286.651,222.27,290.128,223.778z"/>
		<path d="M384.597,358.352v20.163c0,2.117-1.059,3.172-3.172,3.172h-30.584h-0.453h-0.227h-20.164
			c-2.116,0-3.171-1.055-3.171-3.172V226.271c0-2.113,1.055-3.172,3.171-3.172h20.164c2.113,0,3.171,1.059,3.171,3.172V355.18
			h28.093C383.538,355.18,384.597,356.238,384.597,358.352z"/>
		<path d="M455.958,358.352v20.163c0,2.117-1.059,3.172-3.172,3.172h-49.162c-2.116,0-3.171-1.055-3.171-3.172V226.271
			c0-2.113,1.055-3.172,3.171-3.172h49.162c2.113,0,3.172,1.059,3.172,3.172v20.163c0,2.117-1.059,3.172-3.172,3.172H426.96v32.624
			h22.429c2.113,0,3.171,1.059,3.171,3.172v20.164c0,2.117-1.058,3.172-3.171,3.172H426.96v46.443h25.826
			C454.899,355.18,455.958,356.238,455.958,358.352z"/>
		<path d="M531.622,378.515c0,2.117-1.059,3.172-3.172,3.172h-20.164c-2.116,0-3.171-1.055-3.171-3.172V226.271
			c0-2.113,1.055-3.172,3.171-3.172h20.164c2.113,0,3.172,1.059,3.172,3.172V378.515z"/>
		<path d="M640.363,226.271v152.244c0,2.117-1.059,3.172-3.172,3.172h-21.749c-2.117,0-3.172-1.055-3.172-3.172v-71.591
			l-14.952,58.451c-0.305,0.757-0.68,1.133-1.133,1.133s-0.832-0.376-1.133-1.133L580.1,306.924v71.591
			c0,2.117-1.058,3.172-3.171,3.172h-21.75c-2.116,0-3.171-1.055-3.171-3.172V226.271c0-2.113,1.055-3.172,3.171-3.172h19.258
			c0.906,0,1.699,0.34,2.379,1.02s1.168,1.398,1.473,2.152l17.897,81.106l17.897-81.106c0.301-0.754,0.793-1.473,1.473-2.152
			s1.473-1.02,2.379-1.02h19.257C639.305,223.099,640.363,224.157,640.363,226.271z"/>
		<path d="M697.907,223.099c3.926,0,7.625,0.757,11.102,2.266c3.473,1.511,6.492,3.55,9.062,6.117
			c2.566,2.57,4.605,5.59,6.117,9.062c1.508,3.477,2.266,7.176,2.266,11.102v36.928c0,3.929-0.758,7.628-2.266,11.101
			c-1.512,3.477-3.551,6.497-6.117,9.063c-2.569,2.57-5.589,4.609-9.062,6.117c-3.477,1.512-7.176,2.266-11.102,2.266H687.26v61.396
			c0,2.117-1.059,3.172-3.172,3.172h-20.164c-2.116,0-3.171-1.055-3.171-3.172V226.271c0-2.113,1.055-3.172,3.171-3.172H697.907z
			 M699.946,252.777c0-1.508-0.531-2.793-1.586-3.851c-1.059-1.055-2.344-1.586-3.852-1.586h-7.249v45.538h7.249
			c1.508,0,2.793-0.527,3.852-1.586c1.055-1.056,1.586-2.34,1.586-3.852V252.777z"/>
		<path d="M796.684,358.352v20.163c0,2.117-1.059,3.172-3.172,3.172H744.35c-2.116,0-3.171-1.055-3.171-3.172V226.271
			c0-2.113,1.055-3.172,3.171-3.172h49.162c2.113,0,3.172,1.059,3.172,3.172v20.163c0,2.117-1.059,3.172-3.172,3.172h-25.826v32.624
			h22.429c2.113,0,3.171,1.059,3.171,3.172v20.164c0,2.117-1.058,3.172-3.171,3.172h-22.429v46.443h25.826
			C795.625,355.18,796.684,356.238,796.684,358.352z"/>
		<path d="M886.17,378.515c0.453,2.117-0.305,3.172-2.266,3.172h-20.616c-0.906,0-1.777-0.301-2.605-0.906
			c-0.832-0.602-1.398-1.359-1.699-2.266l-16.538-55.506v58.678l-0.227-2.266c-0.305,1.512-1.285,2.266-2.945,2.266h-20.164
			c-2.116,0-3.171-1.055-3.171-3.172V226.271c0-2.113,1.055-3.172,3.171-3.172h33.983c3.926,0,7.625,0.757,11.102,2.266
			c3.473,1.511,6.492,3.55,9.062,6.117c2.566,2.57,4.605,5.59,6.117,9.062c1.508,3.477,2.266,7.176,2.266,11.102v36.928
			c0,5.589-1.438,10.612-4.305,15.066c-2.871,4.457-6.647,7.895-11.327,10.309L886.17,378.515z M842.445,292.877h7.249
			c1.508,0,2.793-0.527,3.852-1.586c1.055-1.056,1.586-2.34,1.586-3.852v-34.663c0-1.508-0.531-2.793-1.586-3.851
			c-1.059-1.055-2.344-1.586-3.852-1.586h-7.249V292.877z"/>
		<path d="M927.627,378.515c0,2.117-1.059,3.172-3.172,3.172h-20.164c-2.116,0-3.171-1.055-3.171-3.172V226.271
			c0-2.113,1.055-3.172,3.171-3.172h20.164c2.113,0,3.172,1.059,3.172,3.172V378.515z"/>
		<path d="M1011.448,226.271v128.456c0,3.93-0.758,7.629-2.266,11.102c-1.512,3.476-3.551,6.495-6.117,9.062
			c-2.569,2.57-5.589,4.609-9.062,6.117c-3.477,1.508-7.176,2.266-11.102,2.266h-8.608c-3.93,0-7.629-0.758-11.102-2.266
			c-3.477-1.508-6.496-3.547-9.062-6.117c-2.569-2.566-4.608-5.586-6.116-9.062c-1.512-3.473-2.266-7.172-2.266-11.102V226.271
			c0-2.113,1.055-3.172,3.172-3.172h20.163c2.113,0,3.172,1.059,3.172,3.172v127.323c0,1.512,0.527,2.797,1.586,3.852
			c1.055,1.059,2.34,1.586,3.851,1.586h1.812c1.508,0,2.793-0.527,3.852-1.586c1.055-1.055,1.586-2.34,1.586-3.852V226.271
			c0-2.113,1.055-3.172,3.172-3.172h20.163C1010.39,223.099,1011.448,224.157,1011.448,226.271z"/>
		<path d="M1117.925,226.271v152.244c0,2.117-1.059,3.172-3.172,3.172h-21.749c-2.117,0-3.172-1.055-3.172-3.172v-71.591
			l-14.952,58.451c-0.305,0.757-0.68,1.133-1.133,1.133s-0.832-0.376-1.133-1.133l-14.953-58.451v71.591
			c0,2.117-1.058,3.172-3.171,3.172h-21.75c-2.116,0-3.171-1.055-3.171-3.172V226.271c0-2.113,1.055-3.172,3.171-3.172h19.258
			c0.906,0,1.699,0.34,2.379,1.02s1.168,1.398,1.473,2.152l17.897,81.106l17.897-81.106c0.301-0.754,0.793-1.473,1.473-2.152
			s1.473-1.02,2.379-1.02h19.257C1116.866,223.099,1117.925,224.157,1117.925,226.271z"/>
	</g>
	<g>
		<path fill="#FFFFFF" d="M144.232,355.878v20.163c0,2.117-1.059,3.172-3.172,3.172H91.898c-2.116,0-3.171-1.055-3.171-3.172
			V223.797c0-2.113,1.055-3.172,3.171-3.172h49.162c2.113,0,3.172,1.059,3.172,3.172v20.163c0,2.117-1.059,3.172-3.172,3.172
			h-25.826v32.624h22.429c2.113,0,3.171,1.059,3.171,3.172v20.163c0,2.117-1.058,3.172-3.171,3.172h-22.429v46.443h25.826
			C143.174,352.706,144.232,353.765,144.232,355.878z"/>
		<path fill="#FFFFFF" d="M229.188,376.041c0.301,2.117-0.605,3.172-2.719,3.172h-20.616c-1.965,0-3.098-1.055-3.398-3.172
			l-1.812-24.468h-14.046l-1.812,24.468c-0.305,2.117-1.438,3.172-3.398,3.172h-20.616c-2.117,0-3.023-1.055-2.719-3.172
			l16.991-152.244c0.301-2.113,1.508-3.172,3.625-3.172h29.905c2.113,0,3.32,1.059,3.625,3.172L229.188,376.041z M198.829,326.199
			l-4.305-61.396h-1.812l-4.304,61.396H198.829z"/>
		<path fill="#FFFFFF" d="M290.128,221.305c3.473,1.511,6.492,3.55,9.062,6.117c2.566,2.57,4.605,5.59,6.117,9.062
			c1.508,3.476,2.266,7.175,2.266,11.101v7.25c0,2.117-0.984,3.476-2.945,4.078l-20.616,7.476c-1.965,0.605-2.945-0.148-2.945-2.266
			v-15.405c0-1.508-0.531-2.793-1.586-3.852c-1.059-1.055-2.344-1.586-3.852-1.586h-1.812c-1.511,0-2.796,0.531-3.851,1.586
			c-1.059,1.059-1.586,2.343-1.586,3.852V351.12c0,1.512,0.527,2.797,1.586,3.852c1.055,1.059,2.34,1.586,3.851,1.586h1.812
			c1.508,0,2.793-0.527,3.852-1.586c1.055-1.055,1.586-2.34,1.586-3.852v-40.326h-6.344v-25.827H304.4
			c2.113,0,3.172,1.058,3.172,3.172v64.114c0,3.93-0.758,7.629-2.266,11.102c-1.512,3.476-3.551,6.495-6.117,9.062
			c-2.569,2.57-5.589,4.609-9.062,6.117c-3.477,1.508-7.176,2.266-11.102,2.266h-8.608c-3.93,0-7.629-0.758-11.102-2.266
			c-3.477-1.508-6.496-3.547-9.062-6.117c-2.569-2.566-4.608-5.586-6.116-9.062c-1.512-3.473-2.266-7.172-2.266-11.102V247.585
			c0-3.926,0.754-7.625,2.266-11.101c1.508-3.473,3.547-6.492,6.116-9.062c2.566-2.566,5.586-4.605,9.062-6.117
			c3.473-1.508,7.172-2.266,11.102-2.266h8.608C282.952,219.04,286.651,219.797,290.128,221.305z"/>
		<path fill="#FFFFFF" d="M384.597,355.878v20.163c0,2.117-1.059,3.172-3.172,3.172h-30.584h-0.453h-0.227h-20.164
			c-2.116,0-3.171-1.055-3.171-3.172V223.797c0-2.113,1.055-3.172,3.171-3.172h20.164c2.113,0,3.171,1.059,3.171,3.172v128.909
			h28.093C383.538,352.706,384.597,353.765,384.597,355.878z"/>
		<path fill="#FFFFFF" d="M455.958,355.878v20.163c0,2.117-1.059,3.172-3.172,3.172h-49.162c-2.116,0-3.171-1.055-3.171-3.172
			V223.797c0-2.113,1.055-3.172,3.171-3.172h49.162c2.113,0,3.172,1.059,3.172,3.172v20.163c0,2.117-1.059,3.172-3.172,3.172H426.96
			v32.624h22.429c2.113,0,3.171,1.059,3.171,3.172v20.163c0,2.117-1.058,3.172-3.171,3.172H426.96v46.443h25.826
			C454.899,352.706,455.958,353.765,455.958,355.878z"/>
		<path fill="#FFFFFF" d="M531.622,376.041c0,2.117-1.059,3.172-3.172,3.172h-20.164c-2.116,0-3.171-1.055-3.171-3.172V223.797
			c0-2.113,1.055-3.172,3.171-3.172h20.164c2.113,0,3.172,1.059,3.172,3.172V376.041z"/>
		<path fill="#FFFFFF" d="M640.363,223.797v152.244c0,2.117-1.059,3.172-3.172,3.172h-21.749c-2.117,0-3.172-1.055-3.172-3.172
			V304.45l-14.952,58.451c-0.305,0.757-0.68,1.133-1.133,1.133s-0.832-0.376-1.133-1.133L580.1,304.45v71.591
			c0,2.117-1.058,3.172-3.171,3.172h-21.75c-2.116,0-3.171-1.055-3.171-3.172V223.797c0-2.113,1.055-3.172,3.171-3.172h19.258
			c0.906,0,1.699,0.34,2.379,1.02s1.168,1.398,1.473,2.152l17.897,81.106l17.897-81.106c0.301-0.754,0.793-1.473,1.473-2.152
			s1.473-1.02,2.379-1.02h19.257C639.305,220.625,640.363,221.684,640.363,223.797z"/>
		<path fill="#FFFFFF" d="M697.907,220.625c3.926,0,7.625,0.757,11.102,2.266c3.473,1.511,6.492,3.55,9.062,6.117
			c2.566,2.57,4.605,5.59,6.117,9.062c1.508,3.477,2.266,7.176,2.266,11.102V286.1c0,3.929-0.758,7.628-2.266,11.101
			c-1.512,3.477-3.551,6.496-6.117,9.062c-2.569,2.57-5.589,4.609-9.062,6.117c-3.477,1.512-7.176,2.266-11.102,2.266H687.26v61.396
			c0,2.117-1.059,3.172-3.172,3.172h-20.164c-2.116,0-3.171-1.055-3.171-3.172V223.797c0-2.113,1.055-3.172,3.171-3.172H697.907z
			 M699.946,250.304c0-1.508-0.531-2.793-1.586-3.851c-1.059-1.055-2.344-1.586-3.852-1.586h-7.249v45.538h7.249
			c1.508,0,2.793-0.527,3.852-1.586c1.055-1.056,1.586-2.34,1.586-3.852V250.304z"/>
		<path fill="#FFFFFF" d="M796.684,355.878v20.163c0,2.117-1.059,3.172-3.172,3.172H744.35c-2.116,0-3.171-1.055-3.171-3.172
			V223.797c0-2.113,1.055-3.172,3.171-3.172h49.162c2.113,0,3.172,1.059,3.172,3.172v20.163c0,2.117-1.059,3.172-3.172,3.172
			h-25.826v32.624h22.429c2.113,0,3.171,1.059,3.171,3.172v20.163c0,2.117-1.058,3.172-3.171,3.172h-22.429v46.443h25.826
			C795.625,352.706,796.684,353.765,796.684,355.878z"/>
		<path fill="#FFFFFF" d="M886.17,376.041c0.453,2.117-0.305,3.172-2.266,3.172h-20.616c-0.906,0-1.777-0.301-2.605-0.906
			c-0.832-0.602-1.398-1.359-1.699-2.266l-16.538-55.506v58.678l-0.227-2.266c-0.305,1.512-1.285,2.266-2.945,2.266h-20.164
			c-2.116,0-3.171-1.055-3.171-3.172V223.797c0-2.113,1.055-3.172,3.171-3.172h33.983c3.926,0,7.625,0.757,11.102,2.266
			c3.473,1.511,6.492,3.55,9.062,6.117c2.566,2.57,4.605,5.59,6.117,9.062c1.508,3.477,2.266,7.176,2.266,11.102V286.1
			c0,5.589-1.438,10.612-4.305,15.065c-2.871,4.457-6.647,7.895-11.327,10.309L886.17,376.041z M842.445,290.404h7.249
			c1.508,0,2.793-0.527,3.852-1.586c1.055-1.056,1.586-2.34,1.586-3.852v-34.663c0-1.508-0.531-2.793-1.586-3.851
			c-1.059-1.055-2.344-1.586-3.852-1.586h-7.249V290.404z"/>
		<path fill="#FFFFFF" d="M927.627,376.041c0,2.117-1.059,3.172-3.172,3.172h-20.164c-2.116,0-3.171-1.055-3.171-3.172V223.797
			c0-2.113,1.055-3.172,3.171-3.172h20.164c2.113,0,3.172,1.059,3.172,3.172V376.041z"/>
		<path fill="#FFFFFF" d="M1011.448,223.797v128.456c0,3.93-0.758,7.629-2.266,11.102c-1.512,3.476-3.551,6.495-6.117,9.062
			c-2.569,2.57-5.589,4.609-9.062,6.117c-3.477,1.508-7.176,2.266-11.102,2.266h-8.608c-3.93,0-7.629-0.758-11.102-2.266
			c-3.477-1.508-6.496-3.547-9.062-6.117c-2.569-2.566-4.608-5.586-6.116-9.062c-1.512-3.473-2.266-7.172-2.266-11.102V223.797
			c0-2.113,1.055-3.172,3.172-3.172h20.163c2.113,0,3.172,1.059,3.172,3.172V351.12c0,1.512,0.527,2.797,1.586,3.852
			c1.055,1.059,2.34,1.586,3.851,1.586h1.812c1.508,0,2.793-0.527,3.852-1.586c1.055-1.055,1.586-2.34,1.586-3.852V223.797
			c0-2.113,1.055-3.172,3.172-3.172h20.163C1010.39,220.625,1011.448,221.684,1011.448,223.797z"/>
		<path fill="#FFFFFF" d="M1117.925,223.797v152.244c0,2.117-1.059,3.172-3.172,3.172h-21.749c-2.117,0-3.172-1.055-3.172-3.172
			V304.45l-14.952,58.451c-0.305,0.757-0.68,1.133-1.133,1.133s-0.832-0.376-1.133-1.133l-14.953-58.451v71.591
			c0,2.117-1.058,3.172-3.171,3.172h-21.75c-2.116,0-3.171-1.055-3.171-3.172V223.797c0-2.113,1.055-3.172,3.171-3.172h19.258
			c0.906,0,1.699,0.34,2.379,1.02s1.168,1.398,1.473,2.152l17.897,81.106l17.897-81.106c0.301-0.754,0.793-1.473,1.473-2.152
			s1.473-1.02,2.379-1.02h19.257C1116.866,220.625,1117.925,221.684,1117.925,223.797z"/>
	</g>
</g>
</svg>
